<?xml version="1.0" standalone="no"?><!DOCTYPE svg PUBLIC "-//W3C//DTD SVG 1.1//EN" "http://www.w3.org/Graphics/SVG/1.1/DTD/svg11.dtd"><svg t="1603413282684" class="icon" viewBox="0 0 1024 1024" version="1.1" xmlns="http://www.w3.org/2000/svg" p-id="9317" xmlns:xlink="http://www.w3.org/1999/xlink" width="200" height="200"><defs><style type="text/css"></style></defs><path d="M890.092308 45.292308H133.907692C82.707692 45.292308 39.384615 88.615385 39.384615 139.815385v94.523077c0 17.723077 13.784615 31.507692 31.507693 31.507692h882.215384c17.723077 0 31.507692-13.784615 31.507693-31.507692V139.815385c0-51.2-43.323077-94.523077-94.523077-94.523077z m27.56923 299.323077H108.307692c-17.723077 0-31.507692 13.784615-31.507692 31.507692v519.876923c0 51.2 43.323077 94.523077 94.523077 94.523077h685.292308c51.2 0 94.523077-43.323077 94.523077-94.523077V376.123077c-1.969231-17.723077-15.753846-31.507692-33.476924-31.507692z m-271.753846 157.538461H378.092308c-21.661538 0-39.384615-17.723077-39.384616-39.384615s17.723077-39.384615 39.384616-39.384616h267.815384c21.661538 0 39.384615 17.723077 39.384616 39.384616s-17.723077 39.384615-39.384616 39.384615z" p-id="9318"></path></svg>