<?xml version="1.0" standalone="no"?><!DOCTYPE svg PUBLIC "-//W3C//DTD SVG 1.1//EN" "http://www.w3.org/Graphics/SVG/1.1/DTD/svg11.dtd"><svg t="1603413049116" class="icon" viewBox="0 0 1483 1024" version="1.1" xmlns="http://www.w3.org/2000/svg" p-id="7340" xmlns:xlink="http://www.w3.org/1999/xlink" width="289.6484375" height="200"><defs><style type="text/css"></style></defs><path d="M1337.530182 436.596364c7.214545-28.020364 11.496727-57.204364 11.496727-87.505455 0-192.837818-156.253091-349.090909-349.090909-349.090909-157.090909 0-289.885091 103.749818-333.730909 246.458182C625.058909 209.361455 571.066182 186.181818 511.208727 186.181818 393.541818 186.181818 297.285818 273.826909 281.693091 387.258182 123.252364 404.573091 0 541.649455 0 704.651636 0 879.429818 141.637818 1024 316.416 1024c174.824727 0 674.909091 0 849.640727 0 174.871273 0 316.555636-144.570182 316.555636-319.348364C1482.612364 593.175273 1424.616727 493.381818 1337.530182 436.596364z" p-id="7341"></path></svg>