<?xml version="1.0" standalone="no"?><!DOCTYPE svg PUBLIC "-//W3C//DTD SVG 1.1//EN" "http://www.w3.org/Graphics/SVG/1.1/DTD/svg11.dtd"><svg t="1603370301144" class="icon" viewBox="0 0 1024 1024" version="1.1" xmlns="http://www.w3.org/2000/svg" p-id="3138" xmlns:xlink="http://www.w3.org/1999/xlink" width="200" height="200"><defs><style type="text/css"></style></defs><path d="M851.2 32H198.4c-38.4 0-64 25.6-64 64v844.8c0 32 32 64 64 64h409.6c38.4 0 64-25.6 64-64v-134.4c0-32 32-64 64-64h108.8c38.4 0 64-25.6 64-64V89.6c12.8-32-19.2-57.6-57.6-57.6zM640 556.8c0 19.2-12.8 32-32 32H320c-19.2 0-32-12.8-32-32v-6.4c0-19.2 12.8-32 32-32h288c19.2 0 32 12.8 32 38.4zM780.8 384c0 19.2-12.8 32-32 32H320c-19.2-6.4-38.4-19.2-38.4-32v-6.4c0-19.2 12.8-32 32-32h428.8c25.6 0 38.4 12.8 38.4 38.4z m0-172.8c0 19.2-12.8 32-32 32H320c-19.2 0-32-12.8-32-32v-6.4c0-19.2 12.8-32 32-32h428.8c19.2 0 32 12.8 32 38.4z" p-id="3139"></path><path d="M716.8 851.2v89.6c0 32 38.4 44.8 57.6 25.6l128-128c19.2-19.2 6.4-57.6-25.6-57.6h-89.6c-38.4 0-70.4 32-70.4 70.4z" p-id="3140"></path></svg>