<?xml version="1.0" standalone="no"?><!DOCTYPE svg PUBLIC "-//W3C//DTD SVG 1.1//EN" "http://www.w3.org/Graphics/SVG/1.1/DTD/svg11.dtd"><svg t="1603370338921" class="icon" viewBox="0 0 1024 1024" version="1.1" xmlns="http://www.w3.org/2000/svg" p-id="3269" xmlns:xlink="http://www.w3.org/1999/xlink" width="200" height="200"><defs><style type="text/css"></style></defs><path d="M166.39526773443953 123.78646611942713v759.8569778846022c0 40.24164647316543 30.773024611239506 71.01467108440494 71.01467108440494 71.01467108440494h352.7061989856395c7.101466720079011 0 14.202934734696296-2.3671551418469137 16.57008987654321-7.101466720079011l253.28565972638023-286.42583947946673c4.734311578232098-4.734311578232098 7.101466720079011-9.468623156464195 7.101466720079011-16.57008987654321v-520.7742528929184c0-40.24164647316543-30.773024611239506-71.01467108440494-71.01467108440494-71.01467108440494H237.40993881884447c-37.87449133131852 0-71.01467108440494 30.773024611239506-71.01467108440494 71.01467108440494zM606.6862276810274 878.9091324257975v-205.94254523859755c0-7.101466720079011 7.101466720079011-14.202934734696296 14.202934734696296-14.202933440158022h182.2709886419753L606.6862276810274 878.9091324257975z m215.41116839506174-755.1226663063703v487.6340731398321h-203.57539009675062c-33.14017975308642 0-61.54604792794074 26.038713033007408-61.54604792794074 61.54604792794074v234.3484147079901H237.40993881884447c-14.202934734696296 0-23.67155659662222-9.468623156464195-23.67155659662222-23.67155789116049V123.78646611942713c0-14.202934734696296 9.468623156464195-23.67155659662222 23.67155659662222-23.67155789116049h561.0159006606222c11.83577829831111 0 23.67155659662222 9.468623156464195 23.67155659662222 23.67155789116049z" fill="" p-id="3270"></path><path d="M296.58883160493826 317.8932330597135h442.6581150884345c14.202934734696296 0 23.67155659662222-9.468623156464195 23.67155659662222-23.67155659662222s-9.468623156464195-23.67155659662222-23.67155659662222-23.67155789116049H296.58883160493826c-14.202934734696296 0-23.67155659662222 9.468623156464195-23.67155659662222 23.67155789116049s11.83577829831111 23.67155659662222 23.67155659662222 23.67155659662222zM296.58883160493826 490.69559854522475h442.6581150884345c14.202934734696296 0 23.67155659662222-9.468623156464195 23.67155659662222-23.67155659662222s-9.468623156464195-23.67155659662222-23.67155659662222-23.67155659662222H296.58883160493826c-14.202934734696296 0-23.67155659662222 9.468623156464195-23.67155659662222 23.67155659662222s11.83577829831111 23.67155659662222 23.67155659662222 23.67155659662222z" fill="" p-id="3271"></path></svg>