<?xml version="1.0" standalone="no"?><!DOCTYPE svg PUBLIC "-//W3C//DTD SVG 1.1//EN" "http://www.w3.org/Graphics/SVG/1.1/DTD/svg11.dtd"><svg t="1603411650077" class="icon" viewBox="0 0 1024 1024" version="1.1" xmlns="http://www.w3.org/2000/svg" p-id="4344" xmlns:xlink="http://www.w3.org/1999/xlink" width="200" height="200"><defs><style type="text/css"></style></defs><path d="M627.305472 113.777664c109.966336 0 199.11168 89.145344 199.11168 199.11168 0 79.834112-46.98624 148.69504-114.812928 180.438016 145.22368 37.60128 252.925952 168.418304 255.461376 324.799488l0.04096 5.174272 0.004096 0.47104c0 15.551488-12.481536 28.188672-27.973632 28.440576l-0.47104 0.003072h-625.77664l-0.47104-0.003072c-15.337472-0.248832-27.723776-12.637184-27.97056-27.97568l-0.003072-0.464896c0-159.58528 109.5168-293.59104 257.492992-330.960896l0.002048 0.012288c-67.252224-31.963136-113.74592-100.519936-113.74592-179.934208 0-109.96736 89.145344-199.11168 199.11168-199.11168z m-227.80928 66.184192c9.293824 0 18.41152 0.763904 27.2896 2.233344-25.998336 36.980736-41.25696 82.055168-41.25696 130.69312 0 67.386368 29.56288 129.440768 78.272512 171.784192-123.870208 53.94944-210.393088 172.865536-220.93824 310.651904l-105.381888 0.003072-0.392192-0.003072c-12.909568-0.20992-23.31136-10.740736-23.31136-23.70048 0-0.131072 0.001024-0.262144 0.003072-0.392192v0.19456l0.034816-4.45952c2.079744-129.62304 90.866688-238.17728 210.894848-270.19776l3.631104-0.94208-1.65888-0.800768c-55.139328-26.971136-93.11232-83.61984-93.11232-149.138432 0-91.63776 74.287104-165.925888 165.924864-165.925888z m-71.138304 315.860992l-0.016384 0.003072 0.017408 0.008192-0.001024-0.011264z" fill="#323233" p-id="4345"></path></svg>