<?xml version="1.0" standalone="no"?><!DOCTYPE svg PUBLIC "-//W3C//DTD SVG 1.1//EN" "http://www.w3.org/Graphics/SVG/1.1/DTD/svg11.dtd"><svg t="1603413417268" class="icon" viewBox="0 0 1024 1024" version="1.1" xmlns="http://www.w3.org/2000/svg" p-id="10255" xmlns:xlink="http://www.w3.org/1999/xlink" width="200" height="200"><defs><style type="text/css"></style></defs><path d="M348.8 912.96c-45.76-13.76-150.4-86.08-242.56-448L40 841.6a32 32 0 0 0 25.92 37.12l599.36 105.6a32 32 0 0 0 37.12-24.32l18.24-104.32-357.44 64z m628.8-217.28C879.04 576 806.08 232 785.92 128a32 32 0 0 0-37.12-25.28L593.92 128a160 160 0 1 1-314.24 56.32l-129.92 23.04a32 32 0 0 0-25.92 37.76c23.36 120.64 113.6 544 232.32 602.56a32 32 0 0 0 19.84 2.88l582.72-102.72a32 32 0 0 0 19.2-51.84zM437.12 256a96 96 0 0 0 76.48-153.28 64 64 0 0 0 0-6.72 64 64 0 0 0-124.8-18.88A96 96 0 0 0 437.12 256z" fill="#231F20" p-id="10256"></path></svg>